<!--
<?xml version="1.0" standalone="no"?>
<!DOCTYPE svg PUBLIC "-//W3C//DTD SVG 20010904//EN"
 "http://www.w3.org/TR/2001/REC-SVG-20010904/DTD/svg10.dtd">
 -->
<svg version="1.0" xmlns="http://www.w3.org/2000/svg"
 width="51.5pt" height="36pt" viewBox="0 0 103.000000 72.000000"
 preserveAspectRatio="xMidYMid meet">
<metadata>
Created by potrace 1.10, written by Peter Selinger 2001-2011
</metadata>
<g transform="translate(0.000000,72.000000) scale(0.100000,-0.100000)"
fill="#F2F2F2" stroke="none">
<path d="M410 360 l0 -360 55 0 55 0 0 195 0 195 45 0 45 0 0 -195 0 -195 55
0 55 0 0 195 0 195 -24 0 c-21 0 -25 5 -28 38 l-3 37 -72 3 -73 3 0 124 0 125
-55 0 -55 0 0 -360z"/>
<path d="M50 520 c0 -36 -2 -40 -25 -40 l-25 0 0 -200 0 -200 25 0 c23 0 25
-4 25 -40 l0 -40 105 0 105 0 0 40 0 40 -75 0 -75 0 0 80 0 80 100 0 100 0 0
120 0 120 -25 0 c-22 0 -25 4 -25 40 l0 40 -105 0 -105 0 0 -40z m150 -120 l0
-80 -45 0 -45 0 0 80 0 80 45 0 45 0 0 -80z"/>
<path d="M870 80 l0 -80 80 0 80 0 0 80 0 80 -80 0 -80 0 0 -80z"/>
</g>
</svg>
